<svg xmlns="http://www.w3.org/2000/svg" fill="none" viewBox="0 0 1056 528" height="528" width="1056">
<path fill="white" d="M916.523 15.4823L875.048 250.681C874.4 254.342 872.485 257.658 869.637 260.048C866.789 262.437 863.191 263.748 859.473 263.75H802.767C800.842 263.75 798.94 263.329 797.195 262.516C795.451 261.703 793.905 260.517 792.667 259.043C791.429 257.569 790.529 255.842 790.03 253.982C789.531 252.123 789.444 250.177 789.777 248.281L831.239 13.0821C831.884 9.41673 833.8 6.09598 836.651 3.70343C839.502 1.31088 843.105 -0.000389625 846.827 0.00011944H903.533C905.459 -0.000370538 907.362 0.421178 909.108 1.23512C910.854 2.04906 912.401 3.23566 913.639 4.71141C914.877 6.18715 915.777 7.91622 916.275 9.77705C916.773 11.6379 916.858 13.5853 916.523 15.4823ZM1042.81 0.00011944H986.1C982.378 -0.000389625 978.775 1.31088 975.924 3.70343C973.074 6.09598 971.157 9.41673 970.512 13.0821L929.037 248.281C928.704 250.177 928.791 252.123 929.29 253.982C929.789 255.842 930.689 257.569 931.927 259.043C933.165 260.517 934.711 261.703 936.456 262.516C938.2 263.329 940.102 263.75 942.027 263.75H998.733C1002.45 263.751 1006.05 262.442 1008.91 260.052C1011.76 257.662 1013.67 254.344 1014.32 250.681L1055.8 15.4823C1056.13 13.5853 1056.05 11.6379 1055.55 9.77705C1055.05 7.91622 1054.15 6.18715 1052.91 4.71141C1051.67 3.23566 1050.13 2.04906 1048.38 1.23512C1046.64 0.421178 1044.73 -0.000370538 1042.81 0.00011944ZM225.748 13.0821C225.103 9.41673 223.187 6.09598 220.336 3.70343C217.485 1.31088 213.882 -0.000389625 210.161 0.00011944H153.454C151.528 -0.000370538 149.625 0.421178 147.879 1.23512C146.133 2.04906 144.586 3.23566 143.348 4.71141C142.11 6.18715 141.21 7.91622 140.712 9.77705C140.214 11.6379 140.129 13.5853 140.465 15.4823L181.939 250.681C182.587 254.342 184.502 257.658 187.35 260.048C190.198 262.437 193.796 263.748 197.514 263.75H254.22C256.145 263.75 258.047 263.329 259.792 262.516C261.536 261.703 263.082 260.517 264.32 259.043C265.558 257.569 266.458 255.842 266.957 253.982C267.457 252.123 267.543 250.177 267.21 248.281L225.748 13.0821ZM86.475 13.0821C85.8299 9.41673 83.9136 6.09598 81.0628 3.70343C78.212 1.31088 74.6091 -0.000389625 70.8874 0.00011944H14.1811C12.2503 -0.00809807 10.3412 0.407803 8.58876 1.21838C6.83632 2.02895 5.28329 3.21444 4.0393 4.69112C2.79531 6.16781 1.89077 7.89965 1.38957 9.76429C0.88836 11.6289 0.802698 13.5809 1.13868 15.4823L42.6134 250.681C43.2613 254.344 45.1788 257.662 48.0293 260.052C50.8798 262.442 54.4812 263.751 58.201 263.75H114.907C116.832 263.75 118.734 263.329 120.479 262.516C122.224 261.703 123.769 260.517 125.007 259.043C126.245 257.569 127.145 255.842 127.645 253.982C128.144 252.123 128.23 250.177 127.897 248.281L86.475 13.0821ZM764.312 0.00011944H707.606C703.884 -0.000389625 700.282 1.31088 697.431 3.70343C694.58 6.09598 692.664 9.41673 692.019 13.0821L650.887 246.329C650.022 251.21 647.467 255.631 643.669 258.817C639.871 262.002 635.073 263.749 630.116 263.75H426.91C421.953 263.749 417.155 262.002 413.357 258.817C409.56 255.631 407.004 251.21 406.14 246.329L365.008 13.0821C364.363 9.41673 362.447 6.09598 359.596 3.70343C356.745 1.31088 353.142 -0.000389625 349.421 0.00011944H292.714C290.788 -0.000370538 288.885 0.421178 287.139 1.23512C285.393 2.04906 283.846 3.23566 282.608 4.71141C281.37 6.18715 280.47 7.91622 279.972 9.77705C279.474 11.6379 279.389 13.5853 279.725 15.4823L321.199 250.681C321.847 254.344 323.765 257.662 326.615 260.052C329.466 262.442 333.067 263.751 336.787 263.75H391.489C396.45 263.749 401.253 265.496 405.053 268.684C408.854 271.873 411.41 276.298 412.272 281.184L453.47 514.431C454.118 518.094 456.035 521.412 458.886 523.802C461.736 526.192 465.338 527.501 469.058 527.5H587.982C591.702 527.501 595.304 526.192 598.154 523.802C601.005 521.412 602.922 518.094 603.57 514.431L644.689 281.184C645.551 276.298 648.107 271.873 651.907 268.684C655.708 265.496 660.511 263.749 665.472 263.75H720.187C723.907 263.751 727.508 262.442 730.359 260.052C733.209 257.662 735.127 254.344 735.775 250.681L777.249 15.4823C777.584 13.5864 777.5 11.6401 777.003 9.78023C776.505 7.92035 775.607 6.19195 774.37 4.71644C773.133 3.24092 771.588 2.05408 769.844 1.2393C768.1 0.424525 766.198 0.00155492 764.273 0.00011944H764.312Z"></path>
</svg>
